<?xml version="1.0" encoding="UTF-8"?>
<!DOCTYPE svg PUBLIC "-//W3C//DTD SVG 1.1//EN" "http://www.w3.org/Graphics/SVG/1.1/DTD/svg11.dtd">
<!-- Creator: CorelDRAW 2018 (64 Bit) -->
<svg xmlns="http://www.w3.org/2000/svg" xml:space="preserve" width="164px" height="40px" version="1.1" style="shape-rendering:geometricPrecision; text-rendering:geometricPrecision; image-rendering:optimizeQuality; fill-rule:evenodd; clip-rule:evenodd"
viewBox="0 0 76.05 18.53"
 xmlns:xlink="http://www.w3.org/1999/xlink">
 <defs>
  <style type="text/css">
   <![CDATA[
    .str1 {stroke:#0A7BFF;stroke-width:1.29;stroke-linecap:round;stroke-linejoin:round;stroke-miterlimit:1145.92}
    .str0 {stroke:#1E9EB9;stroke-width:1.29;stroke-linecap:round;stroke-linejoin:round;stroke-miterlimit:1145.92}
    .fil2 {fill:none}
    .fil4 {fill:#0A7BFF}
    .fil3 {fill:#1E9EB9}
    .fil1 {fill:#0A7BFF;fill-rule:nonzero}
    .fil0 {fill:#1E9EB9;fill-rule:nonzero}
   ]]>
  </style>
 </defs>
 <g id="Capa_x0020_1">
  <metadata id="CorelCorpID_0Corel-Layer"/>
  <g id="_2341775366480">
   <path class="fil0" d="M21.93 0.19l0 7.44 1.18 0 0 -3.48 3.26 0 0 3.48 1.16 0 0 -7.44 -1.16 0 0 2.79 -3.26 0 0 -2.79 -1.18 0zm9.23 3.63c0.17,0 0.34,0.03 0.49,0.1 0.57,0.23 0.95,0.74 0.95,1.27 0,0.29 -0.17,0.65 -0.44,0.91 -0.28,0.28 -0.67,0.47 -1,0.47 -0.72,0 -1.41,-0.69 -1.41,-1.39 0,-0.31 0.15,-0.63 0.41,-0.91 0.28,-0.28 0.65,-0.45 1,-0.45zm-0.01 -1.19l-0.03 0c-1.44,0 -2.58,1.12 -2.58,2.55 0,1.49 1.11,2.57 2.63,2.57 1.51,0 2.61,-1.09 2.61,-2.6 0,-0.66 -0.27,-1.3 -0.75,-1.77 -0.49,-0.49 -1.07,-0.72 -1.88,-0.75zm3.01 4.03c0.15,0.29 0.22,0.4 0.39,0.55 0.37,0.33 0.87,0.52 1.41,0.52 1.02,0 1.74,-0.64 1.74,-1.53 0,-0.37 -0.09,-0.66 -0.29,-0.92 -0.22,-0.27 -0.52,-0.46 -1.12,-0.71 -0.54,-0.22 -0.76,-0.38 -0.76,-0.53 0,-0.06 0.03,-0.12 0.08,-0.17 0.09,-0.09 0.26,-0.16 0.38,-0.16 0.24,0 0.42,0.1 0.9,0.46l0.86 -0.76c-0.65,-0.6 -1.05,-0.78 -1.73,-0.78 -0.34,0 -0.6,0.04 -0.79,0.12 -0.5,0.21 -0.83,0.73 -0.83,1.31 0,0.42 0.11,0.7 0.36,0.96 0.3,0.25 0.4,0.31 0.95,0.54 0.63,0.25 0.9,0.44 0.9,0.63 0,0.07 -0.05,0.13 -0.12,0.22 -0.14,0.14 -0.35,0.23 -0.5,0.23 -0.23,0 -0.5,-0.15 -0.82,-0.45l-1.01 0.47zm6.98 -2.92c0.12,0 0.28,0.03 0.43,0.09 0.57,0.24 0.98,0.8 0.98,1.35 0,0.34 -0.16,0.7 -0.45,0.99 -0.28,0.29 -0.65,0.46 -1,0.46 -0.32,0 -0.72,-0.18 -1.01,-0.47 -0.28,-0.29 -0.43,-0.62 -0.43,-0.98 0,-0.72 0.72,-1.44 1.48,-1.44zm-1.35 -0.99l-1.17 0 0 7.08 1.18 0 0 -2.81c0.59,0.56 1.01,0.74 1.69,0.74 1.33,0 2.33,-1.1 2.33,-2.56 0,-1.53 -0.95,-2.58 -2.33,-2.58 -0.69,0 -1.17,0.21 -1.7,0.76l0 -0.63zm5.2 0l0 4.88 1.16 0 0 -4.88 -1.16 0zm0.58 -2.3l-0.01 0c-0.53,0 -0.86,0.32 -0.86,0.87 0,0.52 0.35,0.87 0.87,0.87 0.56,0 0.87,-0.32 0.87,-0.87 0,-0.56 -0.3,-0.86 -0.87,-0.87zm2.17 0.95l0 1.35 -0.77 0 0 1.09 0.77 0 0 3.79 1.18 0 0 -3.79 0.99 0 0 -1.09 -0.99 0 0 -1.35 -1.18 0zm5.43 2.35l0.03 0c0.13,0 0.3,0.03 0.44,0.1 0.57,0.23 0.99,0.8 0.99,1.35 0,0.35 -0.16,0.71 -0.44,0.99 -0.28,0.29 -0.65,0.45 -0.99,0.45 -0.35,0 -0.72,-0.16 -1,-0.43 -0.27,-0.27 -0.46,-0.69 -0.46,-1 0,-0.72 0.69,-1.43 1.43,-1.46zm1.34 3.88l1.17 0 0 -4.88 -1.17 0 0 0.65c-0.58,-0.6 -0.96,-0.77 -1.72,-0.78 -1.35,0 -2.31,1.07 -2.31,2.6 0,1.48 0.97,2.52 2.34,2.52 0.72,0 1.11,-0.17 1.69,-0.77l0 0.66zm2.64 -7.58l0 7.58 1.15 0 0 -7.58 -1.15 0z"/>
   <path class="fil1" d="M21.93 16.31c0.27,0.69 0.42,0.96 0.75,1.32 0.53,0.57 1.21,0.85 2.11,0.85 1.39,0 2.33,-0.91 2.33,-2.27 0,-0.61 -0.16,-1.1 -0.5,-1.52 -0.34,-0.42 -0.82,-0.72 -1.73,-1.11 -0.9,-0.39 -1.23,-0.65 -1.23,-1.01 0,-0.4 0.5,-0.76 1.05,-0.76 0.46,0 0.79,0.19 1.32,0.73l1.03 -0.81c-0.43,-0.5 -0.63,-0.67 -1.09,-0.88 -0.39,-0.2 -0.82,-0.28 -1.32,-0.28 -1.36,0 -2.25,0.79 -2.25,1.97 0,0.53 0.14,0.93 0.44,1.29 0.31,0.36 0.71,0.61 1.51,0.94 0.62,0.26 0.89,0.42 1.12,0.64 0.24,0.25 0.41,0.57 0.41,0.8 0,0.53 -0.57,1.02 -1.15,1.02 -0.38,0 -0.8,-0.19 -1.11,-0.53 -0.2,-0.21 -0.28,-0.36 -0.43,-0.74l-1.26 0.35zm8.47 -1.89c0.16,0 0.33,0.04 0.48,0.11 0.57,0.23 0.96,0.74 0.96,1.26 0,0.3 -0.18,0.65 -0.44,0.92 -0.28,0.28 -0.68,0.47 -1,0.47 -0.72,0 -1.42,-0.69 -1.42,-1.4 0,-0.3 0.15,-0.62 0.42,-0.9 0.28,-0.28 0.65,-0.46 1,-0.46zm-0.01 -1.18l-0.04 0c-1.44,0 -2.58,1.12 -2.58,2.54 0,1.5 1.12,2.58 2.64,2.58 1.51,0 2.6,-1.09 2.6,-2.6 0,-0.66 -0.27,-1.3 -0.74,-1.78 -0.49,-0.48 -1.07,-0.72 -1.88,-0.74zm3.62 -2.58l0 7.57 1.15 0 0 -7.57 -1.15 0zm2.48 2.7l0 4.87 1.16 0 0 -4.87 -1.16 0zm0.58 -2.3l-0.01 0c-0.53,0 -0.86,0.32 -0.86,0.87 0,0.52 0.35,0.87 0.87,0.87 0.56,0 0.87,-0.33 0.87,-0.87 0,-0.56 -0.3,-0.86 -0.87,-0.87zm4.43 3.27l0.02 0c0.2,0 0.51,0.12 0.74,0.27 0.46,0.3 0.64,0.65 0.64,1.19 0,0.46 -0.11,0.71 -0.44,1.01 -0.28,0.27 -0.64,0.42 -0.98,0.42 -0.33,0 -0.69,-0.17 -0.98,-0.46 -0.28,-0.28 -0.45,-0.64 -0.45,-0.97 0,-0.75 0.68,-1.43 1.45,-1.46zm1.33 -3.68l0 3.36c-0.46,-0.54 -0.97,-0.78 -1.65,-0.78 -1.4,0 -2.38,1.04 -2.38,2.55 0,1.48 0.99,2.57 2.34,2.57 0.7,0 1.15,-0.2 1.71,-0.79l0 0.67 1.15 0 0 -7.58 -1.17 0zm5.1 3.71l0.03 0c0.13,0 0.31,0.03 0.44,0.1 0.57,0.23 0.99,0.8 0.99,1.35 0,0.34 -0.16,0.7 -0.44,0.98 -0.28,0.29 -0.65,0.46 -0.99,0.46 -0.34,0 -0.72,-0.17 -0.99,-0.43 -0.27,-0.27 -0.47,-0.69 -0.47,-1 0,-0.72 0.7,-1.43 1.43,-1.46zm1.35 3.87l1.17 0 0 -4.87 -1.17 0 0 0.65c-0.58,-0.61 -0.97,-0.77 -1.72,-0.78 -1.36,0 -2.31,1.07 -2.31,2.6 0,1.47 0.96,2.52 2.33,2.52 0.72,0 1.12,-0.18 1.7,-0.77l0 0.65zm3.78 -4.87l-1.16 0 0 4.87 1.16 0 0 -2.55c0,-0.64 0.49,-1.22 1.03,-1.22 0.21,0 0.33,0.03 0.49,0.16l0.4 -1.28c-0.18,-0.08 -0.33,-0.1 -0.58,-0.1 -0.58,0 -0.99,0.21 -1.32,0.72l-0.02 0 0 -0.6zm2.66 0l0 4.87 1.16 0 0 -4.87 -1.16 0zm0.58 -2.3l-0.01 0c-0.54,0 -0.86,0.32 -0.86,0.87 0,0.52 0.35,0.87 0.87,0.87 0.56,0 0.87,-0.33 0.87,-0.87 0,-0.56 -0.3,-0.86 -0.87,-0.87zm4.42 3.27l0.03 0c0.19,0 0.51,0.12 0.74,0.27 0.45,0.3 0.64,0.65 0.64,1.19 0,0.46 -0.12,0.71 -0.44,1.01 -0.28,0.27 -0.64,0.42 -0.98,0.42 -0.33,0 -0.69,-0.17 -0.98,-0.46 -0.28,-0.28 -0.46,-0.64 -0.46,-0.97 0,-0.75 0.69,-1.43 1.45,-1.46zm1.34 -3.68l0 3.36c-0.47,-0.54 -0.98,-0.78 -1.65,-0.78 -1.4,0 -2.38,1.04 -2.38,2.55 0,1.48 0.99,2.57 2.33,2.57 0.71,0 1.15,-0.2 1.72,-0.79l0 0.67 1.15 0 0 -7.58 -1.17 0zm5.1 3.71l0.03 0c0.13,0 0.3,0.03 0.44,0.1 0.57,0.23 0.99,0.8 0.99,1.35 0,0.34 -0.16,0.7 -0.44,0.98 -0.28,0.29 -0.65,0.46 -0.99,0.46 -0.35,0 -0.72,-0.17 -1,-0.43 -0.27,-0.27 -0.46,-0.69 -0.46,-1 0,-0.72 0.69,-1.43 1.43,-1.46zm1.34 3.87l1.18 0 0 -4.87 -1.18 0 0 0.65c-0.58,-0.61 -0.96,-0.77 -1.72,-0.78 -1.35,0 -2.31,1.07 -2.31,2.6 0,1.47 0.97,2.52 2.34,2.52 0.72,0 1.11,-0.18 1.69,-0.77l0 0.65zm5.04 -3.9l0.02 0c0.2,0 0.52,0.12 0.75,0.27 0.45,0.3 0.64,0.65 0.64,1.19 0,0.46 -0.12,0.71 -0.44,1.01 -0.28,0.27 -0.64,0.42 -0.98,0.42 -0.34,0 -0.7,-0.17 -0.99,-0.46 -0.28,-0.28 -0.45,-0.64 -0.45,-0.97 0,-0.75 0.69,-1.43 1.45,-1.46zm1.34 -3.68l0 3.36c-0.47,-0.54 -0.98,-0.78 -1.65,-0.78 -1.41,0 -2.38,1.04 -2.38,2.55 0,1.48 0.98,2.57 2.33,2.57 0.71,0 1.15,-0.2 1.72,-0.79l0 0.67 1.15 0 0 -7.58 -1.17 0z"/>
  </g>
  <path class="fil2 str0" d="M14.24 16.3c-1.4,1 -3.12,1.59 -4.97,1.59 -1.86,0 -3.58,-0.59 -4.98,-1.59"/>
  <path class="fil2 str1" d="M16.3 4.29c1,1.4 1.59,3.12 1.59,4.98 0,1.85 -0.59,3.57 -1.59,4.97"/>
  <path class="fil2 str0" d="M4.29 2.23c1.4,-1 3.12,-1.58 4.98,-1.58 1.85,0 3.57,0.58 4.97,1.58"/>
  <path class="fil2 str1" d="M2.23 14.24c-1,-1.4 -1.58,-3.12 -1.58,-4.97 0,-1.86 0.58,-3.58 1.58,-4.98"/>
  <g id="_2341776245312">
   <g>
    <polygon class="fil3" points="7.64,10.85 8.81,10.85 9.78,11.52 11.26,12.66 11.56,14.51 11.57,15 7.64,15 "/>
    <path class="fil4" d="M3.71 6.92c4.34,0 7.86,3.62 7.86,8.08l0 0 0 0c0,-2.22 -1.77,-4.04 -3.93,-4.04l-3.99 0 0 -4.03 0.06 -0.01z"/>
   </g>
   <g>
    <polygon class="fil3" points="11.66,7.07 10.49,7.07 9.52,6.4 8.05,5.26 7.74,3.41 7.73,2.92 11.66,2.92 "/>
    <path class="fil4" d="M15.59 11c-4.34,0 -7.86,-3.62 -7.86,-8.08l0 0 0 0c0,2.22 1.77,4.04 3.93,4.04l3.99 0 0 4.03 -0.06 0.01z"/>
   </g>
  </g>
 </g>
</svg>
